<svg xmlns="http://www.w3.org/2000/svg" width="54.297" height="51.398" viewBox="0 0 54.297 51.398">
  <path id="Blog_More_Arrow" data-name="Blog More Arrow" d="M481.591-348.218c-1.392-3.477-3.1-6.56-3.847-9.859-1.549-6.817-2.555-13.758-3.849-20.634-.909-4.833-1.755-9.713-5.9-14.305-1.919,2.389-3.978,4.326-5.279,6.682-4.982,9.02-9.76,18.152-14.511,27.3-.833,1.6-1.048,3.521-1.78,5.192a17.021,17.021,0,0,1-2.475,4.138c-1.447,1.713-3.643,2.779-5.354.964a7.172,7.172,0,0,1-1.711-5.343c.383-2.345,1.8-4.572,3.007-6.721,5.327-9.512,10.586-19.065,16.186-28.415a52.741,52.741,0,0,1,7.936-10.148c4.182-4.169,8.864-3.528,11.632,1.742a70.47,70.47,0,0,1,5.527,14.334c2.509,9.314,4.426,18.786,6.713,28.164C488.784-351.445,488.31-350.689,481.591-348.218Z" transform="translate(-347.799 -436.831) rotate(90)"/>
</svg>
