<svg id="Component_3_3" data-name="Component 3 – 3" xmlns="http://www.w3.org/2000/svg" width="27.326" height="35.172" viewBox="0 0 27.326 35.172">
  <path id="Path_13" data-name="Path 13" d="M-1551.608-108.7c-1.408-.273-2.431-.436-3.435-.679-1.062-.255-1.755-1.051-1.361-2.093a3.067,3.067,0,0,1,1.805-1.721,12,12,0,0,1,3.479.061c3.024.21,6.045.495,9.071.655,1.491.079,3.008.223,4.3-1.01a1.949,1.949,0,0,1,1.883-.281c2.109,1.757,5.062,2.787,5.415,6.192.036.355.242.7.245,1.049q.062,9.018.084,18.035a1.6,1.6,0,0,1-.126.707c-.528,1.023-.875,2.487-1.7,2.89-.615.3-1.862-.781-3.187-1.42a12.376,12.376,0,0,1-8.851,3c-3.722-.034-6.27-2.133-8.9-4.937l-2.536,9.511c-2.318-.716-2.151-2.411-1.858-4.035.449-2.486,1.024-4.948,1.56-7.417a23.814,23.814,0,0,0,.587-2.455c.5-4.668,1.109-9.3,3.054-13.629A12.156,12.156,0,0,0-1551.608-108.7Zm4.051,6.274a9.031,9.031,0,0,0-3.328,9.258c.544,2.139,1,4.636,4.07,5.154C-1547.063-92.834-1547.3-97.361-1547.557-102.428Zm4.339,14.707.942.533c.42-.526,1.224-1.07,1.2-1.576-.164-3.859-.491-7.711-.767-11.565l-.892.034A89.226,89.226,0,0,0-1543.217-87.721Z" transform="translate(1557.449 113.911)"/>
</svg>
