<svg xmlns="http://www.w3.org/2000/svg" width="22.708" height="32.063" viewBox="0 0 22.708 32.063">
  <g id="Group_20" data-name="Group 20" transform="translate(-1599.012 -249.439)">
    <path id="Path_45" data-name="Path 45" d="M217.087,333.176a23.038,23.038,0,0,0-12.081,2.434,7.723,7.723,0,0,0-1.876,1.782c-.285.312-.375.76-.647,1.087a2.151,2.151,0,0,1-2.7.493,1.231,1.231,0,0,1-.145-2.143,21.443,21.443,0,0,1,3.864-3.13c4.1-2.361,8.785-3.071,13.554-3.078,3.467-.005,4.529,1.564,3.13,4.36a35.823,35.823,0,0,1-3.067,4.682c-1.395,1.942-2.882,3.832-4.326,5.746a10.958,10.958,0,0,0-2.609,5.9,3.254,3.254,0,0,1-.506,1.075c-2.45-.433-2.67-.486-2.451-2.223a10.256,10.256,0,0,1,1.383-4.431c2.047-3.031,4.435-5.881,6.7-8.8A7.131,7.131,0,0,0,217.087,333.176Z" transform="translate(1400.434 -80.682)" stroke="#000" stroke-width="1"/>
    <path id="Path_46" data-name="Path 46" d="M209.41,377.314a2.389,2.389,0,0,1,2.384,1.512c.425,1.08-.11,1.773-1.168,2.161a15.887,15.887,0,0,1-3.589,1.053,2.006,2.006,0,0,1-1.021-3.827A32.547,32.547,0,0,1,209.41,377.314Z" transform="translate(1399.444 -101.063)" stroke="#000" stroke-width="1"/>
  </g>
</svg>
