<svg xmlns="http://www.w3.org/2000/svg" width="29.612" height="39.589" viewBox="0 0 29.612 39.589">
  <g id="Component_2_3" data-name="Component 2 – 3" transform="translate(0)">
    <path id="Path_12" data-name="Path 12" d="M-941.16,233.25c2.723,1.854,5.2,3.569,7.705,5.24,2.3,1.538,2.847,2.731,1.833,4.212-.974,1.422-2.861,1.7-4.729.6-.983-.577-1.853-1.346-2.832-1.93-2.289-1.365-4.271-3.823-7.472-2.081-.392.213-1.156-.267-1.755-.429-.538,2.555-.538,2.555,1.193,7.09-1.483,1.3-2.873,1.059-4.282-.207a7.861,7.861,0,0,1-1.559-10.039,31.339,31.339,0,0,0,1.8-2.917c.255-.59.26-1.856-.027-2a3.046,3.046,0,0,0-2.308-.1,22.547,22.547,0,0,0-2.84,1.893c-.972.6-2.143.682-2.629-.421a3.205,3.205,0,0,1,.176-2.727,30.809,30.809,0,0,1,3.642-3.543c-3.964-8.359-3.964-8.359-3.31-11.078,3.294.772,4.081,4.352,6.94,6.1,2.041-3.262,4.06-6.585,6.19-9.836a12.584,12.584,0,0,1,2.916-3.432,3.937,3.937,0,0,1,3.1-.2c1.227.411,1.306,1.57,1.029,2.883a29.421,29.421,0,0,0-.651,7.628c.663-1.33,1.306-2.671,1.995-3.987a24,24,0,0,1,2.433-4.308,3.836,3.836,0,0,1,2.855-1.237,2.362,2.362,0,0,1,2.06,2.771c-.252,2.5-.761,4.969-.952,7.468-.212,2.772-.084,5.57-.3,8.339a27.075,27.075,0,0,1-1.047,5.975c-.669,2.112-2.228,2.972-3.659,2.507-1.262-.409-2.391-2.421-2.094-4.137s.837-3.417,1.272-5.123l-.715-.309C-938.434,228.22-939.682,230.523-941.16,233.25Zm-4.1-11.5c-3.4,2.819-3.417,2.987-.963,5.19C-945.868,225.045-945.563,223.4-945.258,221.753Z" transform="translate(959.282 -207.229)"/>
  </g>
</svg>
