<svg xmlns="http://www.w3.org/2000/svg" width="32.157" height="32.472" viewBox="0 0 32.157 32.472">
  <g id="Group_71" data-name="Group 71" transform="translate(-1536 -498)">
    <path id="Path_11" data-name="Path 11" d="M458,471.171c.064.8.129,1.61.234,2.919a17.855,17.855,0,0,1-3.811-.429c-2.5-.872-4.918-2-7.382-2.99-2.061-.828-2.545-2.1-1.359-3.926.551-.85,1.246-1.608,2.179-2.792-1.274-.111-2.066-.228-2.859-.239-2.138-.031-4.276.018-6.411-.04a5.057,5.057,0,0,1-2.158-.447,6.468,6.468,0,0,1-1.426-1.465c.529-.4,1-1.015,1.6-1.172a20.244,20.244,0,0,1,3.174-.35l2.534-.244c-1.985-4.432-1.985-4.432-.05-6.4.959.945,1.9,1.917,2.893,2.833.785.722,1.623,1.391,2.462,2.052a2.285,2.285,0,0,0,2.658.379c1.142-.56,1.087-1.472.96-2.441-.429-3.28-.882-6.556-1.33-9.834-.044-.316-.129-.628-.175-.945-.314-2.138.431-3.427,2.059-3.573,1.489-.134,2.316.766,2.617,2.965.347,2.537.622,5.083.967,7.619.138,1.013.379,2.012.573,3.019l.683.226c1.5-1.891,3-3.774,4.484-5.675a18.324,18.324,0,0,1,1.72-2.292,2.621,2.621,0,0,1,3.518.075c1.086,1.032.826,2.081-.038,3.1-.757.9-1.5,1.809-2.283,2.682-.86.959-1.756,1.789-1.127,3.347.443,1.1-.382,1.756-1.419,2.092a18.232,18.232,0,0,0-2.413.865c-3.027,1.48-3.216,4.036-.432,5.844,1.969,1.278,3.983,2.486,5.977,3.726.272.169.556.325.809.519,1.639,1.256,2.129,2.443,1.431,3.444-.764,1.095-2.957,1.229-4.367.18-1.347-1-2.621-2.1-3.928-3.152Zm-5.035-.266c-.236-1.4-.446-2.63-.655-3.863l-.751-.2c-.475.684-1.336,1.364-1.344,2.054C450.2,470.225,451.317,470.737,452.969,470.9Z" transform="translate(1100.989 55.95)"/>
  </g>
</svg>
