<svg xmlns="http://www.w3.org/2000/svg" width="365.079" height="92.118" viewBox="0 0 365.079 92.118">
  <g id="LISTEN" transform="translate(437.556 -729.321)">
    <path id="Path_457" data-name="Path 457" d="M-228.29,742.69a4.282,4.282,0,0,0-2.616-3.667,7.214,7.214,0,0,0-5.03-.352,129.166,129.166,0,0,1-43.444,6.151,52.763,52.763,0,0,0-11.611,1.029,7.386,7.386,0,0,0-5.02,4.073c-.441,1.235-.895,4.344,4.414,6.552l1.078.449.618-.99c1.6-2.561,3.885-2.686,7.461-2.592,2.129.057,4.282.044,6.366.032,1.332-.009,2.667-.015,4-.008,4,.028,4.375.347,4.993,4.246,1.257,7.929,1.09,16.556-.527,27.15-.909,5.959-1.935,12.991-2.652,19.972a9.248,9.248,0,0,0,1.627,6.006c1.1,1.493,3.471,2.175,5.211,2.176,2.2,0,2.881-4.635,2.884-4.682.184-2.079.271-4.186.355-6.223a88.171,88.171,0,0,1,.658-8.809c2.024-14.112,3.488-26.858.894-39.948a1.871,1.871,0,0,1,.072-.558l5.468-1.127c6-1.234,11.9-2.447,17.79-3.689l.211-.044a15.654,15.654,0,0,0,4.291-1.344A4.332,4.332,0,0,0-228.29,742.69Z" transform="translate(40.897 2.621)"/>
    <path id="Path_458" data-name="Path 458" d="M-306.648,768.476a104.276,104.276,0,0,1-14.571-7.722c-1.743-1.1-2.69-2.374-2.6-3.5.086-1.059,1.123-2.082,2.845-2.808a26.993,26.993,0,0,1,8.634-2.1,30.352,30.352,0,0,1,6.7.594c.776.125,1.55.25,2.322.356,1.964.271,5.616.768,6.641-3.046a3.652,3.652,0,0,0-.4-3.182c-.958-1.358-2.734-1.671-4.344-1.8q-1.176-.093-2.361-.2a60.145,60.145,0,0,0-12.969-.19,32.639,32.639,0,0,0-12.095,4.57c-2.864,1.733-4.55,4.189-4.752,6.919-.205,2.8,1.167,5.574,3.862,7.8a48.848,48.848,0,0,0,9.069,5.714c2.683,1.367,5.461,2.625,8.147,3.844,2.315,1.048,4.708,2.134,7.012,3.275a49.43,49.43,0,0,1,7.394,4.461,10.365,10.365,0,0,1,3.706,8.545,7.416,7.416,0,0,1-3.692,6.283c-4.59,2.683-8.628,3.764-13.1,3.523-6.632-.365-12.731-2.255-19.188-4.257l-1.837-.567c-1.224-.375-2.44-.647-3.726-.935-.585-.129-1.181-.263-1.79-.409l-1.447-.348-.168,1.48c-.522,4.623,2.2,6.414,4.638,7.458,8.95,3.839,17.217,5.771,25.272,5.911.181,0,.358,0,.536,0a26.077,26.077,0,0,0,17.671-6.557,15.5,15.5,0,0,0,5.574-11.241,15.331,15.331,0,0,0-4.921-11.4A51.557,51.557,0,0,0-306.648,768.476Z" transform="translate(28.403 4.422)"/>
    <path id="Path_459" data-name="Path 459" d="M-389.114,804.167a5.489,5.489,0,0,0-2.529-2.111,14.35,14.35,0,0,0-5.667-.38c-4.142.436-8.335,1.077-11.94,1.643a97.031,97.031,0,0,1-16.046.7l-.633-.006c.119-.5.233-.98.344-1.452.484-2.059.9-3.836,1.427-5.59.882-2.928,1.806-5.848,2.732-8.766,1.694-5.345,3.445-10.871,4.892-16.4a97.193,97.193,0,0,0,2.453-15.975,5.206,5.206,0,0,0-1.529-4.329,5.81,5.81,0,0,0-4.85-1.421,5.836,5.836,0,0,0-4.412,2.892,4.823,4.823,0,0,0-.036,4.479c1.224,2.525.923,4.864.043,7.819-4.53,15.2-8.341,27.689-11.994,39.293-1.043,3.311-.916,5.71.389,7.333a5.828,5.828,0,0,0,4.811,1.881c.365,0,.745-.017,1.144-.053,12.184-1.077,24.238-2.387,38.586-4.027a4.512,4.512,0,0,0,2.73-1.9,8.455,8.455,0,0,1,.687-.748l1.1-1.01-1.039-1.074A10.344,10.344,0,0,1-389.114,804.167Z" transform="translate(0 5.989)"/>
    <path id="Path_460" data-name="Path 460" d="M-139.514,733.3a5.491,5.491,0,0,0-4.339-3.809,6.071,6.071,0,0,0-6.96,3.385,60.838,60.838,0,0,0-3.612,8.04c-3.46,9.526-4.875,19.544-6.245,29.232-.469,3.327-.957,6.768-1.518,10.123l-1.757,10.555a2.144,2.144,0,0,1-.168-.26q-1.977-3.675-3.919-7.367c-1.858-3.512-3.715-7.025-5.621-10.51-3.977-7.276-8.485-15.524-15.562-21.851a17.5,17.5,0,0,0-4.985-3.413c-2.349-.935-4.391-.957-6.067-.066-1.719.913-2.879,2.694-3.448,5.294a25.789,25.789,0,0,0-.45,4.536c-.017.41-.032.819-.054,1.228-.26,4.857-.178,9.783-.1,14.546.15,9.026.306,18.359-1.915,27.33a6.444,6.444,0,0,0,1.315,5.579,4.405,4.405,0,0,0,3.323,1.714c.075,0,.151,0,.226-.008,3.385-.218,5.476-2.411,5.739-6.018.1-1.415.231-2.826.358-4.238.255-2.838.52-5.775.582-8.695.115-5.372.143-10.829.171-16.105.021-3.849.041-7.7.093-11.551a15.716,15.716,0,0,1,.335-2.556c.089.072.175.144.262.217a14.533,14.533,0,0,1,3.1,3.051c4.6,7.319,9.4,15.308,15.116,25.144,1.212,2.086,2.351,4.287,3.452,6.416,1.306,2.527,2.658,5.14,4.166,7.635.977,1.613,3.324,4.08,5.788,4.255,2.936.2,4.883-1.8,5.813-5.964.42-1.888.885-3.768,1.347-5.648.8-3.237,1.623-6.585,2.219-9.945.811-4.563,1.534-9.21,2.235-13.7.877-5.635,1.783-11.458,2.864-17.135,1.029-5.4,2.091-10.985,6.633-14.9A4.44,4.44,0,0,0-139.514,733.3Z" transform="translate(66.904)"/>
    <path id="Path_461" data-name="Path 461" d="M-207.046,797a4.827,4.827,0,0,0-2.717-.705c-3.345.356-6.727.794-10,1.22-2,.259-3.992.517-5.991.761-1.179.143-2.357.346-3.5.542a32.085,32.085,0,0,1-7.6.69q.5-1.311,1.007-2.6c1.372-3.519,2.668-6.842,3.693-10.349,1.044-3.571,1.778-7.164,2.554-10.969.253-1.239.509-2.494.78-3.77.744,0,1.484.008,2.22.012,3.011.021,5.855.036,8.767-.058a12.173,12.173,0,0,0,5.312-1.208A4.886,4.886,0,0,0-210.4,765.8c-.4-1.817-2.9-2.532-3.95-2.754a4.453,4.453,0,0,0-2.347.263,4.3,4.3,0,0,1-.7.183c-3.2.322-6.394.618-9.543.906l-1.439.134-1.375-12.02.5-.138a28.041,28.041,0,0,1,4.044-.918c1.812-.223,3.7-.312,5.532-.4,1.166-.055,2.33-.112,3.49-.2,2.694-.2,4.379-1.972,4.3-4.513a3.828,3.828,0,0,0-1.283-2.9,4.688,4.688,0,0,0-3.726-.887l-1.8.221c-5.234.636-10.646,1.295-15.943,2.22-2.246.393-3.8,1.332-4.624,2.788-.865,1.532-.836,3.52.089,5.908l.224.578a20.547,20.547,0,0,1,1.678,5.937,66.706,66.706,0,0,1-3.7,26.73c-.909,2.491-2.092,4.975-3.234,7.377-.81,1.7-1.647,3.458-2.4,5.236-1.327,3.145-.7,5.088.053,6.165.685.975,2.077,2.094,4.86,2.094.19,0,.387-.005.589-.015,4.347-.233,8.715-.8,13.065-1.372,4.4-.574,8.851-1.255,13.156-1.912l2.339-.358c.285-.042.575-.08.867-.116a11.333,11.333,0,0,0,3.853-.98,4.805,4.805,0,0,0,1.964-2.53,8.3,8.3,0,0,1,.373-.766l1.024-1.748-1.9-.708C-206.6,797.221-206.82,797.108-207.046,797Z" transform="translate(55.041 3.816)"/>
    <path id="Path_462" data-name="Path 462" d="M-335.08,797.04c-.428.032-.852.1-1.278.168-.244.04-.489.08-.734.108l-9.2,1.069q-5.76.667-11.521,1.342a4.873,4.873,0,0,0,1.993-3.915c.291-3.226.744-6.65,1.384-10.466.7-4.183,1.469-8.372,2.213-12.424.311-1.692.618-3.364.914-5.007l.052-.29-.036-.291c-.1-.82-.186-1.605-.266-2.364a38.4,38.4,0,0,0-.855-5.533,4.864,4.864,0,0,0-3.2-2.944c1.153-.2,2.3-.406,3.456-.6,4.086-.705,8.171-1.411,12.254-2.142a5.874,5.874,0,0,0,4.134-2.424,4.3,4.3,0,0,0,.422-3.56,5.511,5.511,0,0,0-2.67-2.905,6.176,6.176,0,0,1-.614-.416l-.705-.589-2.073.411c-.624.121-1.06.2-1.491.311l-1.857.456c-8.954,2.2-18.213,4.473-27.584,4.7a12.455,12.455,0,0,0-4.9,1.51,4.158,4.158,0,0,0-2.29,2.409,5,5,0,0,0,.49,3.946,5.015,5.015,0,0,0,4.6,2.852,8.413,8.413,0,0,0,2.81-.538,35.9,35.9,0,0,1,5.692-1.608c2.4-.436,4.815-.847,7.223-1.266a6.032,6.032,0,0,0-2.419,2.783,7.028,7.028,0,0,0-.208,3.322,9.967,9.967,0,0,1,.08,1.18c-.019.768-.018,1.543-.017,2.317a32.112,32.112,0,0,1-.317,5.675c-.69,3.83-1.538,7.714-2.358,11.47-.521,2.385-1.041,4.771-1.528,7.16a17.026,17.026,0,0,0-.455,5.41,4.447,4.447,0,0,0,3.621,3.9l-.031,0c-1.537.18-3.079.34-4.621.5-3.95.409-8.033.83-12.019,1.632a56.93,56.93,0,0,0-12.384,4.175c-.7.324-2.842,1.3-3.322,3.434-.475,2.108.887,4.094,2.282,5.759l1.238,1.478,1.47-1.246c4.949-4.192,11.4-5.24,17.053-5.9,8.3-.961,16.763-1.845,24.943-2.7q5.267-.551,10.533-1.108l.7-.072c.765-.079,1.528-.157,2.287-.266,2.857-.407,4.46-2.242,4.29-4.909a4.166,4.166,0,0,0-1.369-3A4.948,4.948,0,0,0-335.08,797.04Z" transform="translate(12.378 4.206)"/>
  </g>
</svg>
