<svg xmlns="http://www.w3.org/2000/svg" width="323.249" height="30.916" viewBox="0 0 323.249 30.916">
  <g id="Group_2" data-name="Group 2" transform="translate(-20.315 -274.761)">
    <path id="Path_14" data-name="Path 14" d="M124.131,292.786c.02-.068.039-.136.059-.206.347,0,.7.027,1.041,0,2.161-.2,3.275-1.477,2.767-3.289a37.747,37.747,0,0,0-1.382-3.986,12.547,12.547,0,0,0-1.241-2.195c-.443-.666-1.219-.9-1.664-.467a6.966,6.966,0,0,0-1.479,1.871c-.576,1.2-.955,2.494-1.448,3.737-.673,1.7-.555,2.92.676,3.683a11.244,11.244,0,0,0,2.672.857m26.678-14.671c0,.037-.005.073-.009.11-1.007,0-2.012-.027-3.018.005a3.051,3.051,0,0,0-3.315,2.609,23.1,23.1,0,0,0-.229,3.781c-.114,2.541,1.505,3.6,3.625,3.69a34.984,34.984,0,0,0,7.731-.283c1.631-.3,3.207-.83,4.087-2.443a4.448,4.448,0,0,0,.683-3.19c-.6-2.53-2.3-3.47-4.5-3.862a50.533,50.533,0,0,0-5.057-.416m-10.637,9.873c0-3.17.026-6.342-.016-9.511a4.935,4.935,0,0,1,.674-2.526,2.5,2.5,0,0,1,2.267-1.131c1.161-.044,2.325-.013,3.488-.013,2.983,0,5.968-.036,8.952.014a11.187,11.187,0,0,1,5.009,1.142,7.48,7.48,0,0,1,3.878,4.779,7.749,7.749,0,0,1-.823,6.432,11.554,11.554,0,0,1-3.472,3.337,5.768,5.768,0,0,0-.583.362c-.953.859-.969,1.867-.03,3.16,1.149,1.583,2.365,3.12,3.47,4.732.843,1.233,1.584,2.538,2.316,3.841a3.051,3.051,0,0,1,.343,1.318c.048,1-.372,1.348-1.36,1.455a3.084,3.084,0,0,1-2.979-1.428c-1.025-1.431-1.947-2.936-2.906-4.414a29.609,29.609,0,0,0-4.187-5.619,6.071,6.071,0,0,0-3.745-1.835c-.838-.066-1.665-.235-2.5-.325a1.89,1.89,0,0,0-.8.084c-2.207.791-2.832,1.174-2.914,3.92-.065,2.2.025,4.408-.03,6.61a2.739,2.739,0,0,1-1.548,2.736,1.392,1.392,0,0,1-1.51-.014,3.054,3.054,0,0,0-3.48-.134,2.651,2.651,0,0,1-3.8-1.2c-.5-.856-.806-1.816-1.236-2.713-.639-1.337-.837-2.933-2.12-3.9a5.479,5.479,0,0,0-1.72-.812c-2.193-.642-4.451-.342-6.679-.332-3.653.016-4.5,1.153-5.744,4.112-.561,1.337-1.1,2.69-1.769,3.974a2.245,2.245,0,0,1-2.644.866,1.712,1.712,0,0,1-.71-1.923c.212-.775.47-1.539.759-2.289,1.168-3.04,2.364-6.07,3.532-9.11,1.473-3.828,2.912-7.671,4.4-11.492a33.494,33.494,0,0,1,1.545-3.346,2.9,2.9,0,0,1,2.89-1.72,3.055,3.055,0,0,1,2.653,1.944c.852,1.8,1.582,3.66,2.362,5.5.629,1.482,1.263,2.961,1.883,4.448.914,2.193,1.781,4.406,2.737,6.582,1.129,2.569,2.33,5.106,3.509,7.653a2.145,2.145,0,0,0,.388.567c.637.673,1.23.609,1.658-.2a2.214,2.214,0,0,0,.289-.863c.119-1.763.254-3.529.29-5.294.047-2.473.011-4.95.011-7.424" transform="translate(0.067 0)" fill="#050505"/>
    <path id="Path_15" data-name="Path 15" d="M112.356,277.9c-.466,1.77-.925,3.543-1.4,5.311-.685,2.549-1.37,5.1-2.077,7.64-.6,2.173-1.254,4.333-1.851,6.51-.415,1.511-.748,3.044-1.169,4.553a5,5,0,0,1-1.465,2.687,2.241,2.241,0,0,1-3.789-.779,15.269,15.269,0,0,1-.873-2.375c-.559-2.028-1.049-4.074-1.6-6.1-.665-2.475-1.334-4.952-2.056-7.411-.387-1.321-.872-2.614-1.35-3.9-.188-.506-.443-.987-1.139-.976a1.427,1.427,0,0,0-1.336.944,21.3,21.3,0,0,0-1.146,2.886c-.865,3.013-1.651,6.05-2.484,9.073q-.794,2.876-1.639,5.738c-.2.691-.471,1.365-.726,2.04a2.455,2.455,0,0,1-1.392,1.311c-1.845.892-3.12.124-3.754-1.594-.909-2.467-1.462-5.065-2.164-7.607-.792-2.876-1.6-5.749-2.363-8.632-.65-2.439-1.253-4.891-1.877-7.337-.169-.664-.343-1.329-.508-2a3.391,3.391,0,0,1-.1-.565,1.943,1.943,0,0,1,1.317-2.185,2.121,2.121,0,0,1,2.144,1.227,12.3,12.3,0,0,1,1.114,3.6c.661,2.866,1.31,5.735,1.967,8.6.358,1.564.681,3.139,1.106,4.686a12.23,12.23,0,0,0,.991,2.448,1.058,1.058,0,0,0,1.824,0,12.426,12.426,0,0,0,1.91-4.37c.472-2.047,1.172-4.04,1.732-6.067.53-1.915.967-3.858,1.519-5.766a22.235,22.235,0,0,1,1.211-3.22,3.06,3.06,0,0,1,2.959-1.406,3.217,3.217,0,0,1,2.579,2.2c.614,1.974,1.192,3.959,1.774,5.942.5,1.687.974,3.38,1.463,5.07.511,1.763,1.019,3.527,1.544,5.287a6.627,6.627,0,0,0,.469,1.173c.654,1.253,1.484,1.366,2.216.192a10.416,10.416,0,0,0,1.154-2.854c.667-2.553,1.225-5.135,1.843-7.7.53-2.194,1.044-4.394,1.651-6.568a2.791,2.791,0,0,1,1.577-2.026c1.128-.464,1.872-.084,2.025,1.144.047.373.045.753.065,1.131l.094.045" transform="translate(0.04 0)" fill="#050505"/>
    <path id="Path_16" data-name="Path 16" d="M217.619,287.934l.024-.154c.619,0,1.242.045,1.855-.012.643-.061,1.273-.3,1.914-.321,2.037-.073,4.5-2.025,4.321-4.485a4.746,4.746,0,0,0-3.935-4.43,55,55,0,0,0-5.645-.284,6.568,6.568,0,0,0-2.026.372,2.4,2.4,0,0,0-1.616,1.814,9.07,9.07,0,0,0-.05,4.865,2.589,2.589,0,0,0,1.885,2.1c1.072.258,2.18.365,3.272.538m.706,14.4c1.25-.123,2.508-.293,3.772-.357a5.1,5.1,0,0,0,3.2-1.415,4.817,4.817,0,0,0,1.584-5.146,4.759,4.759,0,0,0-3.734-3.652,23.382,23.382,0,0,0-6.756-.542,4.369,4.369,0,0,0-3.151,1.182,4.918,4.918,0,0,0-.836,2.2,9.25,9.25,0,0,0,.262,5.422,2.552,2.552,0,0,0,2.2,1.952c1.143.121,2.288.234,3.464.354m-10.16-12.214c0-3.556-.014-7.111.012-10.666a14.961,14.961,0,0,1,.249-2.4,2.378,2.378,0,0,1,2.595-2.233c3.448-.03,6.9-.136,10.341.033a8.8,8.8,0,0,1,6.677,2.924,7.31,7.31,0,0,1,.484,8.9,3.284,3.284,0,0,0,.512,4.476,7.005,7.005,0,0,1,2.1,3.772,15.736,15.736,0,0,1,.389,2.6c.179,2.716-1.293,4.54-3.351,6.049a10.881,10.881,0,0,1-5.15,1.81c-3.933.543-7.878.139-11.817.225a2.739,2.739,0,0,1-2.777-2.434,17.332,17.332,0,0,1-.257-2.628c-.029-3.478-.012-6.956-.012-10.435" transform="translate(0.139 0)" fill="#050505"/>
    <path id="Path_17" data-name="Path 17" d="M173.5,290.026c0,2.9.035,5.8-.013,8.7a3.4,3.4,0,0,0,3.483,3.5c1.808-.084,3.622-.118,5.425-.265,3.749-.3,6.112-2.363,7.408-5.836a18.821,18.821,0,0,0,.82-6.7,13.585,13.585,0,0,0-1.128-5.929,8.016,8.016,0,0,0-5.973-4.914,31.481,31.481,0,0,0-6.575-.305c-2.294.08-3.528,1.236-3.463,3.646.072,2.7.016,5.41.017,8.116m-4.05.2q0-6.2,0-12.4a2.691,2.691,0,0,1,2.884-3.006c3.485-.043,6.972-.093,10.453.017a11.844,11.844,0,0,1,6.673,2.189,11.08,11.08,0,0,1,3.177,3.615,15.389,15.389,0,0,1,1.943,5.5,24.333,24.333,0,0,1,.176,6.65,23.018,23.018,0,0,1-1.6,5.72,10.447,10.447,0,0,1-5.285,5.679,14.091,14.091,0,0,1-4.057,1.211c-3.819.49-7.644.143-11.465.212a2.67,2.67,0,0,1-2.9-2.983q-.007-6.2,0-12.4" transform="translate(0.11 0)" fill="#050505"/>
    <path id="Path_18" data-name="Path 18" d="M51.247,290.109c0,3.014-.011,6.027.005,9.042a2.691,2.691,0,0,0,1.865,2.752,10.616,10.616,0,0,0,2.394.3c1.5-.019,3-.15,4.494-.243a8.054,8.054,0,0,0,7.28-5.191,10.916,10.916,0,0,0,1-4.22c.052-3.053.4-6.139-1.055-9.069-1.283-2.582-3.172-4.416-5.98-4.906a32.943,32.943,0,0,0-6.689-.306c-2.456.079-3.316,1.148-3.318,3.614q0,4.116,0,8.23m-4.072.125q0-6.2,0-12.4a2.689,2.689,0,0,1,2.876-3.006c3.486-.042,6.974-.093,10.457.017a11.959,11.959,0,0,1,6.678,2.192,11.126,11.126,0,0,1,3.134,3.5,15.98,15.98,0,0,1,2,5.371,20.527,20.527,0,0,1,.177,6.531,25.053,25.053,0,0,1-1.3,5.453,11.115,11.115,0,0,1-7.738,7.133,19.016,19.016,0,0,1-5.131.621c-2.673-.037-5.345,0-8.018-.014a2.958,2.958,0,0,1-2.483-.97,2.824,2.824,0,0,1-.663-1.906c.022-4.174.01-8.347.01-12.521" transform="translate(0.02 0)" fill="#050505"/>
    <path id="Path_19" data-name="Path 19" d="M304.944,305.636c-2.557,0-5.115.017-7.672-.013a6.659,6.659,0,0,1-1.811-.28,2.49,2.49,0,0,1-1.833-2.135,14.849,14.849,0,0,1,.047-2.94q-.033-10.787,0-21.573a7.24,7.24,0,0,1,.242-1.812,2.493,2.493,0,0,1,2.657-2.065c5.347-.018,10.694-.03,16.042.015a3.045,3.045,0,0,1,2.52.891c.532.638.525,1.223-.17,1.659a4.806,4.806,0,0,1-2.595.847c-3.527-.017-7.052-.01-10.578,0a8.923,8.923,0,0,0-1.266.1,3.13,3.13,0,0,0-2.771,2.841,10.665,10.665,0,0,0,.133,4.349c.409,1.558,1.434,2.457,3.547,2.517,3.174.09,6.354.009,9.531.038a6.851,6.851,0,0,1,1.8.3,1.648,1.648,0,0,1,1.166,1.431,1.568,1.568,0,0,1-1.135,1.335,5.681,5.681,0,0,1-1.8.318c-2.906.03-5.812,0-8.719.024a17.475,17.475,0,0,0-1.823.222c-1.9.223-2.46,1.266-2.779,3.284a18.268,18.268,0,0,0-.025,3.707,3.5,3.5,0,0,0,3.782,3.518c3.8.021,7.595-.014,11.392.026a7.154,7.154,0,0,1,2.009.418,1.267,1.267,0,0,1,.915,1.329,1.335,1.335,0,0,1-.985,1.294,6.683,6.683,0,0,1-1.918.34c-2.634.037-5.27.015-7.9.015" transform="translate(0.202 0)" fill="#050505"/>
    <path id="Path_20" data-name="Path 20" d="M20.326,290.145c0-3.9-.021-7.811.019-11.716a5.24,5.24,0,0,1,.441-2.12,2.61,2.61,0,0,1,2.536-1.5c2.4.008,4.806,0,7.208,0,2.945,0,5.891-.031,8.836.026a3.948,3.948,0,0,1,1.836.548,1.287,1.287,0,0,1,.011,2.215,3.124,3.124,0,0,1-1.931.641c-3.6-.034-7.208-.018-10.812-.01a5.155,5.155,0,0,0-1.264.1,3.374,3.374,0,0,0-2.869,3.754,14.015,14.015,0,0,0,.232,3.318,3.2,3.2,0,0,0,3.546,2.649q5,.032,10-.005a3.119,3.119,0,0,1,1.939.629,1.321,1.321,0,0,1,.023,2.167,3.082,3.082,0,0,1-1.934.643q-4.707-.045-9.417,0a9.1,9.1,0,0,0-2.275.343,3.369,3.369,0,0,0-2.111,3.161,24.27,24.27,0,0,0,.016,3.709c.266,2.231,1.116,3.427,3.771,3.494,3.873.1,7.751.015,11.625.038a5.49,5.49,0,0,1,1.572.274c1,.312,1.15.547,1.138,1.464-.011.874-.217,1.156-1.19,1.416a6.27,6.27,0,0,1-1.583.239c-5.309.017-10.62-.044-15.928.039a3.153,3.153,0,0,1-3.423-3.456c-.041-2.746-.011-5.491-.011-8.236q0-1.914,0-3.828" transform="translate(0 0)" fill="#050505"/>
    <path id="Path_21" data-name="Path 21" d="M245.706,292.715c.719-.154,1.424-.307,2.129-.454a2.154,2.154,0,0,0,1.642-2.919,26.918,26.918,0,0,0-1.353-3.886,10.827,10.827,0,0,0-1.518-2.4c-.625-.775-.975-.759-1.737-.139a2.876,2.876,0,0,0-.673.779,22.066,22.066,0,0,0-2.354,6.053,1.978,1.978,0,0,0,1.49,2.475c.764.219,1.558.33,2.374.5m-.131-17.643a2.975,2.975,0,0,1,2.786,1.71,29.349,29.349,0,0,1,1.558,3.336c.628,1.479,1.2,2.981,1.812,4.466q1.818,4.4,3.656,8.8c.681,1.626,1.408,3.232,2.088,4.858.663,1.589,1.317,3.182,1.927,4.791a1.57,1.57,0,0,1-.625,1.816,1.458,1.458,0,0,1-2,.206,4.382,4.382,0,0,1-1.845-2.16c-.577-1.337-1.158-2.673-1.706-4.022a4.506,4.506,0,0,0-4.337-2.859c-2.048-.1-4.1-.071-6.155-.009-2.443.074-4.036,1.46-4.866,4.021a16.191,16.191,0,0,1-1.771,4.083,3.945,3.945,0,0,1-1.776,1.19c-.428.224-1.492-.546-1.7-1.131a4.049,4.049,0,0,1,.216-3c1.5-3.571,3.117-7.094,4.578-10.681,1.589-3.9,3.034-7.857,4.588-11.77a6.729,6.729,0,0,1,1.786-2.929,2.333,2.333,0,0,1,1.786-.717" transform="translate(0.157 0)" fill="#050505"/>
    <path id="Path_22" data-name="Path 22" d="M318.468,276.543c.423-1.764,2.38-1.8,3.68-.727a13.787,13.787,0,0,1,2.686,3.43c.781,1.231,1.56,2.465,2.365,3.681.7,1.054,1.392,2.109,2.149,3.117a2.173,2.173,0,0,0,3.859-.123c1.736-2.662,3.415-5.364,5.226-7.976.742-1.069,1.408-2.283,2.92-2.638a1.547,1.547,0,0,1,1.62.494,1.2,1.2,0,0,1,.135,1.587c-.574,1-1.137,2-1.778,2.955-1.454,2.161-2.965,4.282-4.428,6.435-1.056,1.555-2.128,3.1-3.087,4.715a6.487,6.487,0,0,0-.826,3.42c.014,2.009.039,4.02-.012,6.027a15.241,15.241,0,0,1-.345,2.732,1.555,1.555,0,0,1-1.743,1.352c-1.075.013-1.376-.209-1.678-1.323a4.98,4.98,0,0,1-.188-1.241c-.021-1.738-.014-3.478-.009-5.217a13.74,13.74,0,0,0-.919-5.4,17.546,17.546,0,0,0-1.622-2.886c-2.31-3.485-4.67-6.935-6.982-10.419a18.8,18.8,0,0,1-1.021-1.993" transform="translate(0.221 0)" fill="#050505"/>
    <path id="Path_23" data-name="Path 23" d="M271.3,290.088c0-3.518-.022-7.035.015-10.552a19.88,19.88,0,0,1,.318-2.852,2.409,2.409,0,0,1,1.71-1.546,1.883,1.883,0,0,1,1.707,1.451,7.072,7.072,0,0,1,.238,1.7c.017,6.262,0,12.524.027,18.786a11.727,11.727,0,0,0,.362,2.731,3.667,3.667,0,0,0,3.6,2.41c2.324.027,4.649-.02,6.973.024a8.95,8.95,0,0,1,2.147.357,1.569,1.569,0,0,1,1.082,1.487,1.783,1.783,0,0,1-1.339,1.273,17.662,17.662,0,0,1-2.516.269q-5.228.045-10.46,0a6,6,0,0,1-1.918-.326,2.227,2.227,0,0,1-1.631-1.915c-.105-1.03-.289-2.058-.3-3.087-.038-3.4-.015-6.8-.015-10.2" transform="translate(0.186 0)" fill="#050505"/>
    <path id="Path_24" data-name="Path 24" d="M264.5,275.154c1.655.5,2.038,1.64,2.036,3.08-.017,7.8,0,15.6-.02,23.4a7,7,0,0,1-.268,1.693,2.165,2.165,0,0,1-1.927,1.637,2.081,2.081,0,0,1-1.762-2.122c-.032-1.428-.01-2.858-.01-4.286q0-10.137,0-20.274a2.912,2.912,0,0,1,1.956-3.13" transform="translate(0.179 0)" fill="#050505"/>
  </g>
</svg>
