<svg id="Group_73" data-name="Group 73" xmlns="http://www.w3.org/2000/svg" width="33.509" height="24.174" viewBox="0 0 33.509 24.174">
  <path id="Path_413" data-name="Path 413" d="M223.976,165.421c-1.552,3.664-3,7.082-4.31,10.171a32.375,32.375,0,0,1,3.5,4.372c1.5,2.752-.652,4.538-2.22,6.3a4.88,4.88,0,0,1-5.582,1.084c-4.37-1.9-5.015-3.337-3.048-7.517,2.007-4.264,4.087-8.5,6.31-12.655C220.069,164.478,220.749,164.337,223.976,165.421Z" transform="translate(-190.467 -164.789)"/>
  <path id="Path_414" data-name="Path 414" d="M202.062,178.322a5.362,5.362,0,0,0,1.076.526c4.077.865,4.125,4.387,1.107,6.968a9.918,9.918,0,0,1-7.715,2.335c-.876-.074-1.682-.956-2.91-1.708,3.092-2.662,2.824-5.69,2.684-8.909a11.754,11.754,0,0,1,4.75-10.427c1.5-1.121,2.972-1.392,4.905.23C202.452,170.185,201.391,173.84,202.062,178.322Z" transform="translate(-193.619 -164.028)"/>
</svg>
