<svg id="quotation_mark_right" data-name="quotation mark right" xmlns="http://www.w3.org/2000/svg" width="30.362" height="21.133" viewBox="0 0 30.362 21.133">
  <path id="Path_30" data-name="Path 30" d="M256.171,444.938c2.051-1.811,3.923-1.6,5.838-.437a10.187,10.187,0,0,1,4.315,10.409c-.416,2.005-.952,3.989-1.472,5.972-.735,2.8-1.824,3.616-4.645,3.267-1.732-.215-3.537-.043-4.812-1.9-2.083-3.04-1.08-6.369,2.479-7.32,1.1-.294,2.83.231,2.984-1.35a7.924,7.924,0,0,0-.84-4.44C259.162,447.629,257.647,446.494,256.171,444.938Z" transform="translate(-236.156 -443.603)"/>
  <path id="Path_31" data-name="Path 31" d="M241.545,445.436c2.82-2.01,3.57-2.062,5.416-.454,2.8,2.441,3.408,5.766,3.368,9.214-.019,1.753-.121,3.187,1.609,4.4,1.306.92,1.037,2.7-.368,3.671a11.421,11.421,0,0,1-9.6,2.062c-2.013-.514-2.5-1.772-1.357-3.5a18.248,18.248,0,0,1,2.206-2.376,7.758,7.758,0,0,0,1.052-9.6C243.2,447.745,242.41,446.7,241.545,445.436Z" transform="translate(-240.009 -443.538)"/>
</svg>
