<svg xmlns="http://www.w3.org/2000/svg" width="277.752" height="104.537" viewBox="0 0 277.752 104.537">
  <g id="READ" transform="translate(446.788 -846.581)">
    <path id="Path_463" data-name="Path 463" d="M-356.559,938.483c-.658-1.64-1.34-3.337-1.923-5.024-6.339-18.34-18.607-31.128-36.462-38.01-2.16-.831-4.324-1.808-6.613-2.842q-.976-.443-2.006-.906c1.45-.834,2.877-1.626,4.273-2.4a81.986,81.986,0,0,0,11.384-7.127,90.292,90.292,0,0,0,15.639-15.4c2.44-3.163,3.148-6.544,2-9.519-1.2-3.1-4.3-5.309-8.495-6.046a33.307,33.307,0,0,0-10.124-.325c-13.962,1.94-27.978,6.594-42.85,14.226-2.657,1.364-5.281,2.877-7.816,4.338-1.447.836-2.9,1.67-4.355,2.481-2.786,1.551-3.609,4.079-2.2,6.765,1.2,2.289,3.529,2.834,6.388,1.485a24.013,24.013,0,0,0,2.765-1.615c.426-.276.853-.551,1.288-.812l10.614-6.352c.008.622.019,1.2.028,1.733a40.491,40.491,0,0,1-.058,4.346q-.212,2.316-.41,4.636c-1.166,13.376-2.372,27.207-7.2,40.125-1.555,4.159.291,5.97,2.115,6.756,2.478,1.064,4.883.03,6.6-2.844a16.109,16.109,0,0,0,1.734-4.561c1.016-4.19,1.991-8.39,2.966-12.588q.858-3.7,1.724-7.387c.255-1.075.545-2.138.891-3.4l.322-1.188,5.276,1.948c4.217,1.554,8.248,3.038,12.264,4.567,18.676,7.114,29.106,19.708,31.889,38.5a13.1,13.1,0,0,0,1,3.392,5.1,5.1,0,0,0,4.775,3.362,7.173,7.173,0,0,0,2.355-.43,5.306,5.306,0,0,0,3.125-2.779,6.072,6.072,0,0,0,.025-4.779C-355.935,940.034-356.247,939.258-356.559,938.483Zm-24.4-76.956a15.1,15.1,0,0,1-2.137,3.739c-8.024,9.094-18.349,15.419-31.537,19.307V866.951c9.658-5.637,25.133-8.572,34.2-6.555C-380.615,860.775-380.789,861.153-380.96,861.527Z" transform="translate(0 2.317)"/>
    <path id="Path_464" data-name="Path 464" d="M-256.676,865.881c-8.751-9.983-20.828-15.248-36.921-16.094a30.05,30.05,0,0,0-8.968,1.337l-.925.231a5.015,5.015,0,0,0-3.265,2.459,4.824,4.824,0,0,0-.3,3.879,4,4,0,0,0,2.382,2.583c.91.33,2.429.467,4.519-.773,3.643-2.157,7.433-1.884,10.985-1.266.564.1,1.131.184,1.7.269.836.127,1.673.251,2.5.424,10.393,2.143,18.406,7.27,23.815,15.235,3.647,5.373,6.415,13.43-1.122,21.29a58.738,58.738,0,0,1-19.661,13.68,16.261,16.261,0,0,1-4.281,1.112c-1.692.206-2.7.129-3.166-.24s-.771-1.306-.968-2.96c-.46-3.867-.908-8.022-1.076-12.2l-.093-2.255c-.391-9.378-.8-19.075,1.057-28.47a5.958,5.958,0,0,0-.625-4.616,3.491,3.491,0,0,0-2.57-1.373c-1.984-.184-4.327,1.126-5.651,2.431-1.164,1.145-1.342,3.141-1.362,4.939-.063,5.416-.055,10.952-.046,16.814l0,6.69,0,.068c.079,1.632.17,3.383.264,5.215.233,4.545.5,9.7.68,14.8.2,5.728.864,7.358,6.464,8.971a20.926,20.926,0,0,0,5.739.867,13.363,13.363,0,0,0,2.823-.28,49.041,49.041,0,0,0,10.816-4.006c7.442-3.6,14.069-9.053,20.259-16.654C-246.085,888.685-247.21,876.681-256.676,865.881Z" transform="translate(79.649 1.817)"/>
    <path id="Path_465" data-name="Path 465" d="M-338.21,915.886a5.272,5.272,0,0,0-3-.8c-4.061.432-8.17.966-12.143,1.482-2.443.317-4.886.635-7.331.932-1.422.173-2.85.42-4.231.655a37.106,37.106,0,0,1-10.148.781c.5-1.309,1-2.6,1.5-3.887,1.664-4.269,3.237-8.3,4.478-12.545,1.266-4.328,2.157-8.7,3.1-13.321.336-1.654.68-3.335,1.046-5.043q1.593,0,3.164.014c3.664.023,7.123.044,10.662-.069a14.324,14.324,0,0,0,6.229-1.409,5.4,5.4,0,0,0,2.276-5.17c-.429-1.945-3.46-2.734-4.382-2.93a5.03,5.03,0,0,0-2.567.31,5.323,5.323,0,0,1-.966.247c-3.774.38-7.552.729-11.273,1.073l-2.663.245-1.793-15.677c.361-.1.721-.2,1.081-.3a34.827,34.827,0,0,1,5-1.131c2.229-.275,4.544-.385,6.784-.49,1.414-.068,2.826-.135,4.237-.242,3-.223,4.8-2.107,4.71-4.916a4.117,4.117,0,0,0-1.365-3.128,5.191,5.191,0,0,0-4.105-.949l-2.192.267c-6.372.775-12.962,1.577-19.4,2.7-2.561.449-4.324,1.5-5.24,3.117-.968,1.714-.919,3.973.143,6.716l.275.7a25.48,25.48,0,0,1,2.08,7.408,81.858,81.858,0,0,1-4.542,32.791c-1.117,3.062-2.562,6.1-3.959,9.034-.985,2.068-2,4.206-2.913,6.363-1.518,3.592-.834,5.772,0,6.968.756,1.076,2.311,2.311,5.461,2.311.22,0,.449,0,.687-.017,5.276-.284,10.586-.977,15.876-1.668s10.624-1.505,15.791-2.3l3.075-.468c.352-.053.709-.1,1.068-.145a13.194,13.194,0,0,0,4.509-1.136,5.339,5.339,0,0,0,2.138-2.814,10.128,10.128,0,0,1,.482-.987l.907-1.549-1.683-.63A9.385,9.385,0,0,1-338.21,915.886Z" transform="translate(34.403 1.696)"/>
    <path id="Path_466" data-name="Path 466" d="M-291.209,915.43a24.8,24.8,0,0,1-2.38-5.323l-.812-3.134c-2.753-10.618-5.6-21.6-7.953-32.47-.907-4.189-1.461-8.572-2-12.812-.368-2.9-.748-5.9-1.24-8.849a7.577,7.577,0,0,0-1.964-3.529c-.269-.322-.54-.643-.764-.973l-1.193-1.76-1.749,1.211c-.339.234-.683.462-1.029.69a26.164,26.164,0,0,0-2.746,2,4.651,4.651,0,0,0-1.284,2.19c-.05.154-.1.306-.16.448l-2,4.6c-1.57,3.614-3.139,7.225-4.677,10.85-4.412,10.393-10.492,23.972-18.429,36.832-1.965,3.183-3.794,6.492-5.56,9.694-.809,1.463-1.617,2.927-2.438,4.382l-.924,1.631,1.515,1.1c1.78,1.3,3.315,2.421,5.114,2.063,1.631-.325,2.573-1.686,3.552-3.3,1.928-3.174,3.713-6.473,5.439-9.667.839-1.552,1.68-3.1,2.536-4.646.943-1.694,1.909-3.375,2.726-4.8l.017-.028c.6.234,1.178.473,1.742.7a27.124,27.124,0,0,0,7.034,2.174,58.588,58.588,0,0,0,12.5-.306,14.8,14.8,0,0,1,3.087-.124,13.87,13.87,0,0,1,1.094,3.081c1.024,3.552,2.349,7.037,3.631,10.407.448,1.18.9,2.36,1.334,3.543,1.119,3.029,3.158,4.561,6.068,4.561.217,0,.438-.008.666-.027l.874-.064.567-.666c3.064-3.577,1.247-6.982.272-8.812Zm-34.211-19.813-.924-.046,1.519-3.386c1.862-4.146,3.662-8.159,5.469-12.167.723-1.6,1.387-3.232,2.058-4.883a85.537,85.537,0,0,1,3.854-8.553l6.152,28.4C-313.373,896.231-319.241,895.933-325.42,895.617Z" transform="translate(54.988 0)"/>
  </g>
</svg>
