<svg xmlns="http://www.w3.org/2000/svg" width="156.913" height="155.637" viewBox="0 0 156.913 155.637">
  <path id="Path_25" data-name="Path 25" d="M481.651,259.1c-2.617,16.021-6.3,31.267-15.191,43.878a267.639,267.639,0,0,1-17.928,22.038c-2.16,2.466-2.566,4.191-1.235,7.3,1.985,4.634,3.475,9.55,5.135,14.363.579,1.68,1.365,3.5-.788,4.575-1.918.955-3.729.615-4.6-1.622-1.187-3.053-1.865-6.366-3-9.452-.937-2.544-2.225-4.916-3.357-7.366-2.816,2.383-5.88,4.479-8.336,7.283-1.072,1.223-.964,3.881-1.257,5.915-.183,1.268-.01,2.6-.171,3.878-.481,3.759-2.453,6.067-5.111,6.009-2.475-.053-4.505-2.007-4.539-6.347-.041-5.575-.927-6.283-5.551-3.939-10.75,5.453-22.159,7.128-33.589,6.9-18.735-.379-35.209-7.534-47.569-24.784a13.785,13.785,0,0,0-5.164-4.34c-4.313-2-5.277-3.308-4.337-8.606.764-4.3,2.09-8.484,2.756-12.8,1.218-7.869,2.069-15.816,3.189-23.708a74.884,74.884,0,0,0-1.9-29.169c-2.249-8.916-.887-12.1,6.531-15.844a86.228,86.228,0,0,1,8.23-3.471c2.749-1.052,2.415-2.475.553-4.243A7.4,7.4,0,0,1,342.908,224c-.752-1.331-1.353-2.776-2.016-4.177a30.112,30.112,0,0,1,4.157,1.569,30.879,30.879,0,0,1,4.018,2.854,6.459,6.459,0,0,0,6.944,1.01c7.252-2.757,14.641-5.029,21.993-7.427a5.338,5.338,0,0,1,3.266-.374c1.389.529,3.465,1.525,3.66,2.679a6.973,6.973,0,0,1-1.54,5.281c-1.658,1.525-3.981,2.223-6.108,2.917-4.325,1.414-8.715,2.552-13.06,3.878-2.153.656-2.494,2.234-.867,3.853a155.144,155.144,0,0,0,11.493,10.77c3.068,2.486,7.692.98,10.037-2.643,2.148-3.319,3.991-6.953,6.418-9.967,5.488-6.812,11.724-6.148,15.991,1.752,1.528,2.829,2.706,3.191,4.491.805,2.17-2.9,4.587-5.677,6.238-8.946,3.112-6.159,4.289-7.476,10.008-6.422,2.73.5,3.931-.473,5.534-2.76,3.938-5.616,8.251-10.886,12.478-16.229.738-.936,1.817-2.225,2.679-2.167a6.868,6.868,0,0,1,4.558,1.877c.584.659.18,3.477-.594,4.52-1.728,2.333-4.075,4.038-5.974,6.225-5.618,6.471-10.159,13.773-12.363,22.717-.452,1.835-1.36,4.949-.774,5.439a4.111,4.111,0,0,0,6.524-.988c3.266-5.063,7.982-3.778,12.324-4.121a2.9,2.9,0,0,1,2.4,1.16c2.432,4.287,6.252,3.3,9.727,3.679,6.5.711,12.629,2.281,15.3,10.369A80.124,80.124,0,0,1,481.651,259.1Zm-91.638,84.4c6.3.136,16.693-3.147,26.823-7.592,2.088-.919,5-3.039,5.289-5.035.983-6.851.995-13.89,1.278-20.865.022-.531-.682-1.168-1.153-1.605-.1-.089-.752.432-1,.805a8.862,8.862,0,0,0-1.011,2c-1.9,5.492-4.613,10.671-4.143,16.992.291,3.881-1.624,6.488-4.827,7.313s-4.419-1.985-5.082-4.838c-.913-3.93-2.018-7.936-2.151-11.947-.187-5.66.466-11.357.694-17.045a15.391,15.391,0,0,0-.421-2.862,22.772,22.772,0,0,0-2.066,1.616c-6.19,6.042-8.489,5.339-10.9-3.338a9.594,9.594,0,0,0-.9-1.769c-.536.385-1.358.628-1.562,1.179-1.915,5.123-7.728,7.307-7.836,13.848-.012.7-1.173,1.445-1.872,2.062-3.369,2.97-6.675,6.056-10.186,8.794-2.052,1.6-4.6,4.42-6.192-.872a2.408,2.408,0,0,0-2.038-1.376q-7.591,1.756-15.095,3.978c-.418.125-.951,2.237-.639,2.671a28.848,28.848,0,0,0,4.356,4.836C359.995,339.749,372.081,343.765,390.014,343.5Zm81.416-80.041c.188-8.888-.93-10.762-6.574-12.727a17.376,17.376,0,0,0-4.623-.914c-4.414-.268-5.133.288-5.346,5.475a249.064,249.064,0,0,1-5.426,40.553c-1.615,7.761-4.3,8.988-10.2,4.612a1.737,1.737,0,0,0-1.487.213c-.608,5.5-2.631,11.1,1.713,16.074,1.934,2.214,3.169,2.32,4.89.078,5.346-6.964,11.221-13.474,15.993-20.92C466.866,285.757,470.235,273.943,471.429,263.456ZM341.156,265.1l-.622.1c0,2.331-.053,4.661.019,6.989.038,1.221.288,2.436.442,3.654.858-.634,1.759-1.2,2.566-1.915,3.479-3.067,5.055-7.031,4.6-12.168-.137-1.545.543-3.189.848-4.789.894,1.074,2.148,1.976,2.6,3.255.99,2.773,2,2.7,3.962,1.1a121.469,121.469,0,0,1,11.332-8.345c3.037-1.935,2.617-3.518.329-5.613-1.23-1.127-2.372-2.38-3.535-3.6-9.309-9.718-9.758-9.8-21.121-3.748-.2.108-.4.232-.615.321-3.016,1.262-3.967,3.377-3.213,7.219C339.885,253.328,340.388,259.248,341.156,265.1Zm3.568,48.655c3.739-.686,7.478-1.359,11.214-2.062,2.2-.418,3.068-1.769,2.314-4.351-1.632-5.594-3.181-11.221-4.823-16.813-.68-2.314-2.184-3.6-4.094-2.17-2.136,1.6-4.818,3.374-5.7,5.818-1.675,4.656-2.357,9.818-3.227,14.822C339.734,312.9,341.719,314.021,344.725,313.758Zm49.03-35.709c.935-5.633-2.249-7.291-4.561-9.6-2.17-2.162-3.34-1.6-4.215,1.572-2.03,7.379-4.349,14.651-6.456,22a72.493,72.493,0,0,0-1.612,7.5c-.1.6.341,1.326.531,1.993.6-.274,1.41-.346,1.764-.85,4.513-6.411,9-12.846,13.382-19.378A11.083,11.083,0,0,0,393.755,278.048Zm31.458-12-.134-.014a68.251,68.251,0,0,0-.089-7.72c-.135-1.16-1.237-2.176-1.9-3.255-.649.913-1.668,1.727-1.879,2.76a77.219,77.219,0,0,0-1.271,9.123c-.557,6.9-1.038,13.809-1.346,20.726-.041.938,1.1,1.946,1.694,2.92.675-.606,1.639-1.057,1.968-1.852a20.986,20.986,0,0,0,1.709-5.763C424.531,277.348,424.816,271.688,425.213,266.044Zm-24.122-18.332c-.783-1.451-1.43-3.521-2.706-4.578-.507-.421-2.874,1.06-3.6,2.295a75.094,75.094,0,0,0-5.231,10.671c-1.206,3.064,2.521,8.866,5.4,8.736a2.165,2.165,0,0,0,1.514-1.226c.569-1.373,1.35-2.934,1.225-4.323-.308-3.471-.293-6.593,2.374-8.979C400.512,249.9,400.608,248.979,401.091,247.712Zm-29.985,29.111c-3.893,2.58-7.187,4.661-10.349,6.981-.408.3-.38,1.943-.127,2.8,1.153,3.872,2.429,7.7,3.744,11.5a2.5,2.5,0,0,0,1.3,1.176c.134.067.709-.609.836-1.038,1.788-6.04,3.578-12.079,5.236-18.169C371.951,279.291,371.406,278.239,371.105,276.822Zm7.656-16.945c-.9-.543-1.648-1.4-2.213-1.257a11.163,11.163,0,0,0-3.71,1.771q-6.826,4.874-13.528,9.978c-.387.293-.394,1.246-.577,1.893.61-.017,1.31.188,1.807-.091a9.355,9.355,0,0,0,2.787-2.129c2.91-3.6,6.079-5.173,10.181-2.574.6.379,2.076.3,2.28-.122C376.87,265.125,377.67,262.722,378.761,259.877Zm52.9.753c.3,1.616.661,3.537,1.019,5.458a33.772,33.772,0,0,0,3.1-5.248,18.987,18.987,0,0,0,1.084-5.982c.034-.933-.793-2.582-1.418-2.71a2.9,2.9,0,0,0-2.686,1.334A49.687,49.687,0,0,0,431.662,260.63Z" transform="translate(-324.738 -200.261)"/>
</svg>
