<svg xmlns="http://www.w3.org/2000/svg" width="26.052" height="28.381" viewBox="0 0 26.052 28.381">
  <path id="Path_39" data-name="Path 39" d="M552.128-240.294l-8.561,1.373c-.026-.1-.053-.2-.079-.3q-1.7-6.582-3.245-13.2c-.508-2.171-3.858-1.675-3.854.522l.027,14.131-6.5,1.043c-1.63.261-1.66,2.263-.866,3.28a21.479,21.479,0,0,0,7.417,6.04,2,2,0,0,0,3.026,1.273c2.312.808,5.085,1.283,6.5-.745,1.049-1.509-.329-4.17-.761-5.769q-.335-1.238-.662-2.477l8.609-1.381C555.658-236.909,554.6-240.691,552.128-240.294Zm-15.7,8.359a17.785,17.785,0,0,1-2.047-1.562l2.044-.328Q536.426-232.88,536.428-231.935Zm5.6,2.46c-.542-.141-1.137-.37-1.394-.451-.094-.03-.186-.066-.28-.1l-.008-4.429.325-.052Q541.339-231.987,542.03-229.475Z" transform="translate(-528.539 253.827)" fill="#fff"/>
</svg>
