<svg xmlns="http://www.w3.org/2000/svg" width="25.86" height="36.234" viewBox="0 0 25.86 36.234">
  <path id="Path_27" data-name="Path 27" d="M-1874.248,326.913c-2.679-.322-5.05-.594-7.416-.9a11.459,11.459,0,0,1-1.9-.423c-.962-.3-1.722-.914-1.549-1.99.191-1.191,1.159-1.226,2.171-1.135,2.126.19,4.257.38,6.389.442,2.641.076,2.787-.03,3.194-2.7.559-3.67.991-7.358,1.486-11.038a20.125,20.125,0,0,1,.447-2.746c.4-1.429,1.127-1.823,2.477-1.516,1.563.356,1.958.992,1.662,2.59q-1.215,6.57-2.4,13.145a10.092,10.092,0,0,0-.008,1.418c1.223-.133,2.3-.182,3.339-.382,1.272-.242,2.508-.684,3.783-.908,1.711-.3,3.1.326,3.276,1.338.182,1.076-.875,2.136-2.518,2.463-2.091.416-4.178.865-6.286,1.168a2.753,2.753,0,0,0-2.656,2.64c-.544,3.482-1.257,6.937-1.9,10.4-.085.455-.037,1.072-.314,1.322a3.208,3.208,0,0,1-1.826.939c-.413.009-1.125-.725-1.2-1.208a9.741,9.741,0,0,1,.078-3.016C-1875.429,333.616-1874.851,330.425-1874.248,326.913Z" transform="translate(1885.14 -304.811)" fill="#fff"/>
</svg>
