<svg id="Group_15" data-name="Group 15" xmlns="http://www.w3.org/2000/svg" width="24.026" height="22.945" viewBox="0 0 24.026 22.945">
  <path id="Path_41" data-name="Path 41" d="M-1187.882,333.25a28.747,28.747,0,0,1-1.578-4.044c-.635-2.8-1.048-5.644-1.579-8.465-.373-1.982-.72-3.984-2.42-5.867a21.428,21.428,0,0,0-2.165,2.74c-2.044,3.7-4,7.447-5.953,11.2-.342.659-.43,1.445-.73,2.131a6.96,6.96,0,0,1-1.016,1.7c-.594.7-1.494,1.14-2.2.4a2.945,2.945,0,0,1-.7-2.192,9,9,0,0,1,1.235-2.757c2.184-3.9,4.342-7.821,6.639-11.656a21.629,21.629,0,0,1,3.255-4.163c1.716-1.711,3.636-1.448,4.772.715a28.912,28.912,0,0,1,2.267,5.879c1.029,3.822,1.816,7.707,2.754,11.554C-1184.932,331.927-1185.126,332.237-1187.882,333.25Z" transform="translate(1207.714 -310.813)" fill="#fff"/>
  <path id="Path_42" data-name="Path 42" d="M18.361,22.1a28.747,28.747,0,0,1-1.578-4.044c-.635-2.8-1.048-5.644-1.579-8.465-.373-1.982-.72-3.984-2.42-5.867a21.428,21.428,0,0,0-2.165,2.74c-2.044,3.7-4,7.447-5.953,11.2-.342.659-.43,1.445-.73,2.131a6.96,6.96,0,0,1-1.016,1.7c-.594.7-1.494,1.14-2.2.4a2.945,2.945,0,0,1-.7-2.192,9,9,0,0,1,1.235-2.757C3.441,13.036,5.6,9.116,7.9,5.281a21.629,21.629,0,0,1,3.255-4.163c1.716-1.711,3.636-1.448,4.772.715A28.912,28.912,0,0,1,18.19,7.712c1.029,3.822,1.816,7.707,2.754,11.554C21.312,20.778,21.117,21.088,18.361,22.1Z" transform="translate(22.189 0) rotate(85)" fill="#fff"/>
</svg>
