<svg xmlns="http://www.w3.org/2000/svg" width="336.546" height="89.655" viewBox="0 0 336.546 89.655">
  <g id="WATCH" transform="translate(448.949 -642.169)">
    <path id="Path_452" data-name="Path 452" d="M-365.93,646.36a3.785,3.785,0,0,0-2.332-2.289,7.986,7.986,0,0,0-7.3,1.136c-2.037,1.8-3.226,4.444-4.277,6.781-4.753,10.571-6.147,22-7.374,32.08-.969,7.96-2.3,16.032-3.587,23.839l-.7,4.283a3.849,3.849,0,0,1-.374,1.01c-.026-.047-.053-.093-.081-.142-1.1-1.894-2.028-3.5-2.914-5.117q-4.235-7.746-8.434-15.515l-3.894-7.179c-1.927-3.55-4.98-5.118-8.6-4.441-4.416.843-4.715,4.677-4.893,6.969l-.041.514c-.313,3.64-.575,7.281-.835,10.924-.87-1.958-1.745-3.961-2.517-5.95q-2.345-6.046-4.639-12.112c-2.51-6.6-5.108-13.42-7.783-20.089a9.164,9.164,0,0,0-5.155-5.035,5.071,5.071,0,0,0-4.083.362,6.79,6.79,0,0,0-3.019,4.444l-.181.738.365.665c9.467,17.323,15.922,36.2,22.166,54.458l1.673,4.884c.8,2.33,2.137,6.186,7.226,6.02,5.461-.228,6.291-4.6,6.442-7.87.085-1.869.131-3.742.176-5.613.056-2.288.113-4.656.248-6.962.113-1.932.312-3.9.519-5.835.9,1.848,1.842,3.734,2.9,5.544l2.012,3.459c3.171,5.465,6.449,11.114,10.15,16.389a6.366,6.366,0,0,0,5.108,3.013c.141,0,.283-.006.424-.017a6.483,6.483,0,0,0,5.135-4.047,47.893,47.893,0,0,0,4.04-11.685c.77-4.111,1.282-8.309,1.778-12.369.351-2.867.713-5.833,1.161-8.717.408-2.622.764-5.258,1.121-7.893,1.615-11.96,3.142-23.258,9.208-33.579C-366.454,650.33-365.261,648.3-365.93,646.36Z" transform="translate(0 0.769)"/>
    <path id="Path_453" data-name="Path 453" d="M-302.52,657.7c7.027-1.446,13.937-2.869,20.84-4.321l.274-.058a18.393,18.393,0,0,0,5.036-1.58,5.111,5.111,0,0,0,2.963-4.487,5.05,5.05,0,0,0-3.086-4.324,8.531,8.531,0,0,0-5.935-.417,152.713,152.713,0,0,1-51.245,7.257,62.361,62.361,0,0,0-13.7,1.212c-2.181.421-5.08,2.453-5.921,4.8-.522,1.457-1.057,5.126,5.2,7.73l1.272.529.729-1.168c1.886-3.022,4.577-3.167,8.8-3.057,2.507.068,5.045.052,7.5.038,1.576-.011,3.152-.018,4.726-.009,4.721.034,5.161.409,5.891,5.007,1.482,9.353,1.284,19.532-.622,32.027-1.074,7.035-2.285,15.337-3.13,23.561A10.884,10.884,0,0,0-321,727.53c1.3,1.763,4.093,2.569,6.145,2.571,2.6,0,3.4-5.468,3.4-5.523.217-2.452.319-4.937.418-7.341a104.051,104.051,0,0,1,.776-10.393c2.388-16.646,4.116-31.682,1.054-47.122a2.223,2.223,0,0,1,.085-.66Z" transform="translate(49.689)"/>
    <path id="Path_454" data-name="Path 454" d="M-249.923,709.74c-1.777-.8-3.638-.1-5.281.52-.449.169-.894.339-1.328.467q-1.362.4-2.721.818c-7.035,2.125-13.682,4.136-20.887,3.574-8.877-.686-15.156-5.923-17.229-14.369-2.823-11.51-.94-20.99,5.6-28.173,4.378-4.809,9.954-9.379,17.551-14.377,5.687-3.742,9.671-3.386,12.923,1.148,1.36,1.9,5.27,1.994,7.264,1.231,2.294-.882,2.59-5.056,2.545-6.125-.2-4.7-4.26-8.884-9.237-9.54a31.6,31.6,0,0,0-10.182.469c-10.781,2.178-18.464,9.294-25.894,16.175-8.839,8.185-13.33,18.738-13.73,32.261l0,.094.008.091c.05.618.076,1.256.1,1.907a25.213,25.213,0,0,0,.525,4.884c2.192,9.239,8.747,24.874,28.018,25.759.718.032,1.428.049,2.135.049,9.648,0,18.42-2.951,26.919-5.81,1.836-.619,4.238-1.808,5.264-3.976a5.249,5.249,0,0,0,.088-4.185A4.843,4.843,0,0,0-249.923,709.74Z" transform="translate(72.119 1.316)"/>
    <path id="Path_455" data-name="Path 455" d="M-215.277,682.421a9.537,9.537,0,0,0-2.321-.748q.171-1.686.332-3.334c.344-3.489.669-6.785,1.11-10.092.54-4.048,1.186-8.159,1.812-12.136q.452-2.854.89-5.715l.038-.243a11.95,11.95,0,0,0,.19-2.029c-.058-3.488-2.184-5.585-5.835-5.756-4.645-.257-5.059,3.838-5.21,5.365q-.842,8.595-1.749,17.183c-.6,5.829-1.209,11.657-1.78,17.489l-.033.348c-.24,2.528-.482,3.255-1.723,3.544-6.051,1.411-11.56,2.458-17.238.979-.006-1.547-.023-3.08-.041-4.6-.049-4.44-.1-8.632.111-12.874.167-3.427.587-6.93.995-10.317.251-2.091.5-4.184.7-6.28a5.683,5.683,0,0,0-1.211-4.44,6.463,6.463,0,0,0-4.822-1.95A4.967,4.967,0,0,0-254.847,648c-1.334,1.261-1.536,3.156-1.558,4.841-.1,7.446-.249,13.6-.482,19.383-.672,16.71-1.407,33.791-2.245,52.222-.2,4.46,1.459,6.9,4.94,7.246a6.235,6.235,0,0,0,.643.032,4.479,4.479,0,0,0,2.986-1.03c1.183-1,1.837-2.636,2-5q.123-1.793.26-3.584c.256-3.433.52-6.982.622-10.5.106-3.7.082-7.312.056-11.137q-.011-1.634-.018-3.286h18.659l-.214,3.031c-.26,3.749-.519,7.438-.835,11.122-.111,1.293-.28,2.58-.447,3.868a60.585,60.585,0,0,0-.59,6.2,5.147,5.147,0,0,0,3.348,4.484c1.589.379,4.355-.707,5.127-2.382a28.463,28.463,0,0,0,2.467-8.071c.738-5.576,1.288-11.459,1.634-17.487.175-3.071.57-4.644,3.412-5.781,2.317-.925,3.695-2.533,3.778-4.408C-211.208,685.706-212.657,683.755-215.277,682.421Z" transform="translate(98.895 0.097)"/>
    <path id="Path_456" data-name="Path 456" d="M-337.681,714.275a23.593,23.593,0,0,1-2.259-5.039l-.786-3.036c-2.665-10.273-5.419-20.9-7.695-31.413-.872-4.032-1.409-8.264-1.929-12.355-.356-2.814-.726-5.724-1.2-8.589a7.873,7.873,0,0,0-2.023-3.678c-.248-.3-.5-.592-.706-.9l-1.465-2.155-2.143,1.483c-.324.222-.653.441-.981.659a25.578,25.578,0,0,0-2.721,1.979,5.054,5.054,0,0,0-1.4,2.362c-.044.132-.085.266-.138.389l-1.945,4.484c-1.515,3.488-3.031,6.975-4.518,10.477-4.262,10.045-10.136,23.167-17.8,35.583-1.909,3.092-3.679,6.3-5.392,9.4-.783,1.419-1.565,2.837-2.362,4.245l-1.132,2,1.859,1.358c1.751,1.279,3.406,2.482,5.38,2.09,1.793-.359,2.82-1.834,3.8-3.447,1.875-3.089,3.611-6.3,5.289-9.4.809-1.5,1.617-2.992,2.443-4.476s1.675-2.966,2.415-4.257c.423.169.834.338,1.238.5a26.659,26.659,0,0,0,6.959,2.143,57.085,57.085,0,0,0,12.219-.3,21.362,21.362,0,0,1,2.613-.149,22.356,22.356,0,0,1,.855,2.619c1,3.465,2.288,6.851,3.535,10.129.432,1.136.864,2.274,1.285,3.413,1.422,3.86,4.152,4.773,6.411,4.773.227,0,.447-.009.662-.026l1.071-.081.7-.815c3.206-3.745,1.264-7.391.329-9.146Zm-32.864-21.286c1.921-4.28,3.771-8.4,5.629-12.52.7-1.556,1.346-3.141,2-4.747.923-2.269,1.863-4.583,3.013-6.889l5.517,25.467c-5.631,1.069-11.107.792-16.864.5l-.1,0Z" transform="translate(27.44 2.576)"/>
  </g>
</svg>
